<mxfile host="65bd71144e">
    <diagram id="3pbDBRohuLrhXVOsunWD" name="第 1 页">
        <mxGraphModel dx="1845" dy="1814" grid="1" gridSize="10" guides="1" tooltips="1" connect="1" arrows="1" fold="1" page="1" pageScale="1" pageWidth="827" pageHeight="1169" background="#ffffff" math="0" shadow="0">
            <root>
                <mxCell id="0"/>
                <mxCell id="1" parent="0"/>
                <mxCell id="99" value="" style="rounded=0;whiteSpace=wrap;html=1;strokeColor=default;fillColor=none;container=0;" parent="1" vertex="1">
                    <mxGeometry x="-266" y="-100" width="1360" height="1530" as="geometry"/>
                </mxCell>
                <mxCell id="101" value="" style="group;fillColor=default;container=0;rounded=0;glass=0;" parent="1" vertex="1" connectable="0">
                    <mxGeometry x="-266" y="-100" width="1360" height="1530" as="geometry"/>
                </mxCell>
                <mxCell id="4" value="" style="group;strokeColor=default;dashed=1;dashPattern=12 12;" parent="1" vertex="1" connectable="0">
                    <mxGeometry x="144" y="100" width="580" height="180" as="geometry"/>
                </mxCell>
                <mxCell id="52" value="ViewPort" style="rounded=0;whiteSpace=wrap;html=1;fillColor=none;" parent="4" vertex="1">
                    <mxGeometry x="20" y="10" width="120" height="50" as="geometry"/>
                </mxCell>
                <mxCell id="53" value="ScenePreview" style="rounded=0;whiteSpace=wrap;html=1;fillColor=none;" parent="4" vertex="1">
                    <mxGeometry x="160" y="10" width="120" height="50" as="geometry"/>
                </mxCell>
                <mxCell id="65" value="AnimationEditor" style="rounded=0;whiteSpace=wrap;html=1;fillColor=none;" parent="4" vertex="1">
                    <mxGeometry x="303.5" y="10" width="120" height="50" as="geometry"/>
                </mxCell>
                <mxCell id="3" value="Tool Layer" style="text;html=1;strokeColor=none;fillColor=none;align=right;verticalAlign=middle;whiteSpace=wrap;rounded=0;dashed=1;dashPattern=8 8;" parent="4" vertex="1">
                    <mxGeometry x="520" y="150" width="60" height="30" as="geometry"/>
                </mxCell>
                <mxCell id="97" value="Inspector" style="rounded=0;whiteSpace=wrap;html=1;fillColor=none;" parent="4" vertex="1">
                    <mxGeometry x="440" y="10" width="120" height="50" as="geometry"/>
                </mxCell>
                <mxCell id="98" value="SceneTree" style="rounded=0;whiteSpace=wrap;html=1;fillColor=none;" parent="4" vertex="1">
                    <mxGeometry x="20" y="90" width="120" height="50" as="geometry"/>
                </mxCell>
                <mxCell id="5" value="" style="group;strokeColor=default;dashed=1;dashPattern=8 8;container=0;" parent="1" vertex="1" connectable="0">
                    <mxGeometry x="144" y="320" width="580" height="390" as="geometry"/>
                </mxCell>
                <mxCell id="8" value="" style="group;align=right;" parent="1" vertex="1" connectable="0">
                    <mxGeometry x="154" y="730" width="580" height="180" as="geometry"/>
                </mxCell>
                <mxCell id="9" value="" style="rounded=0;whiteSpace=wrap;html=1;dashed=1;dashPattern=8 8;fillColor=none;align=center;" parent="8" vertex="1">
                    <mxGeometry width="580" height="180" as="geometry"/>
                </mxCell>
                <mxCell id="10" value="Resource Layer" style="text;html=1;strokeColor=none;fillColor=none;align=right;verticalAlign=middle;whiteSpace=wrap;rounded=0;dashed=1;dashPattern=8 8;" parent="8" vertex="1">
                    <mxGeometry x="490" y="150" width="90" height="30" as="geometry"/>
                </mxCell>
                <mxCell id="38" value="Image" style="rounded=0;whiteSpace=wrap;html=1;fillColor=none;" parent="8" vertex="1">
                    <mxGeometry x="10" y="10" width="120" height="50" as="geometry"/>
                </mxCell>
                <mxCell id="39" value="Model" style="rounded=0;whiteSpace=wrap;html=1;fillColor=none;" parent="8" vertex="1">
                    <mxGeometry x="150" y="10" width="120" height="50" as="geometry"/>
                </mxCell>
                <mxCell id="40" value="Material" style="rounded=0;whiteSpace=wrap;html=1;fillColor=none;" parent="8" vertex="1">
                    <mxGeometry x="300" y="10" width="120" height="50" as="geometry"/>
                </mxCell>
                <mxCell id="41" value="Audio" style="rounded=0;whiteSpace=wrap;html=1;fillColor=none;" parent="8" vertex="1">
                    <mxGeometry x="450" y="10" width="120" height="50" as="geometry"/>
                </mxCell>
                <mxCell id="42" value="Videos" style="rounded=0;whiteSpace=wrap;html=1;fillColor=none;" parent="8" vertex="1">
                    <mxGeometry x="10" y="80" width="120" height="50" as="geometry"/>
                </mxCell>
                <mxCell id="55" value="Code" style="rounded=0;whiteSpace=wrap;html=1;fillColor=none;" parent="8" vertex="1">
                    <mxGeometry x="150" y="80" width="120" height="50" as="geometry"/>
                </mxCell>
                <mxCell id="11" value="" style="group" parent="1" vertex="1" connectable="0">
                    <mxGeometry x="154" y="940" width="580" height="180" as="geometry"/>
                </mxCell>
                <mxCell id="12" value="" style="rounded=0;whiteSpace=wrap;html=1;dashed=1;dashPattern=8 8;fillColor=none;align=center;" parent="11" vertex="1">
                    <mxGeometry width="580" height="180" as="geometry"/>
                </mxCell>
                <mxCell id="13" value="Core Layer" style="text;html=1;strokeColor=none;fillColor=none;align=right;verticalAlign=middle;whiteSpace=wrap;rounded=0;dashed=1;dashPattern=8 8;" parent="11" vertex="1">
                    <mxGeometry x="490" y="150" width="90" height="30" as="geometry"/>
                </mxCell>
                <mxCell id="17" value="Math" style="rounded=0;whiteSpace=wrap;html=1;fillColor=none;" parent="11" vertex="1">
                    <mxGeometry x="10" y="10" width="120" height="50" as="geometry"/>
                </mxCell>
                <mxCell id="18" value="Memory" style="rounded=0;whiteSpace=wrap;html=1;fillColor=none;" parent="11" vertex="1">
                    <mxGeometry x="157" y="10" width="120" height="50" as="geometry"/>
                </mxCell>
                <mxCell id="19" value="File" style="rounded=0;whiteSpace=wrap;html=1;fillColor=none;" parent="11" vertex="1">
                    <mxGeometry x="303" y="10" width="120" height="50" as="geometry"/>
                </mxCell>
                <mxCell id="60" value="RenderAPI" style="rounded=0;whiteSpace=wrap;html=1;fillColor=none;" parent="11" vertex="1">
                    <mxGeometry x="450" y="10" width="120" height="50" as="geometry"/>
                </mxCell>
                <mxCell id="77" value="Reflection" style="rounded=0;whiteSpace=wrap;html=1;fillColor=none;" parent="11" vertex="1">
                    <mxGeometry x="10" y="90" width="120" height="50" as="geometry"/>
                </mxCell>
                <mxCell id="14" value="" style="group" parent="1" vertex="1" connectable="0">
                    <mxGeometry x="154" y="1150" width="580" height="180" as="geometry"/>
                </mxCell>
                <mxCell id="15" value="" style="rounded=0;whiteSpace=wrap;html=1;dashed=1;dashPattern=8 8;fillColor=none;align=center;" parent="14" vertex="1">
                    <mxGeometry width="580" height="180" as="geometry"/>
                </mxCell>
                <mxCell id="16" value="Platform Layer" style="text;html=1;strokeColor=none;fillColor=none;align=right;verticalAlign=middle;whiteSpace=wrap;rounded=0;dashed=1;dashPattern=8 8;" parent="14" vertex="1">
                    <mxGeometry x="490" y="150" width="90" height="30" as="geometry"/>
                </mxCell>
                <mxCell id="43" value="Windows" style="rounded=0;whiteSpace=wrap;html=1;fillColor=none;" parent="14" vertex="1">
                    <mxGeometry x="10" y="23" width="120" height="50" as="geometry"/>
                </mxCell>
                <mxCell id="44" value="MacOS" style="rounded=0;whiteSpace=wrap;html=1;fillColor=none;" parent="14" vertex="1">
                    <mxGeometry x="157" y="23" width="120" height="50" as="geometry"/>
                </mxCell>
                <mxCell id="45" value="Linux" style="rounded=0;whiteSpace=wrap;html=1;fillColor=none;" parent="14" vertex="1">
                    <mxGeometry x="303" y="23" width="120" height="50" as="geometry"/>
                </mxCell>
                <mxCell id="46" value="iOS" style="rounded=0;whiteSpace=wrap;html=1;fillColor=none;" parent="14" vertex="1">
                    <mxGeometry x="450" y="23" width="120" height="50" as="geometry"/>
                </mxCell>
                <mxCell id="47" value="Android" style="rounded=0;whiteSpace=wrap;html=1;fillColor=none;" parent="14" vertex="1">
                    <mxGeometry x="10" y="100" width="120" height="50" as="geometry"/>
                </mxCell>
                <mxCell id="21" value="&lt;h1&gt;Core&lt;/h1&gt;&lt;p&gt;A set of tools to provide basical functionality&lt;/p&gt;" style="text;html=1;strokeColor=default;fillColor=none;spacing=5;spacingTop=-20;whiteSpace=wrap;overflow=hidden;rounded=0;dashed=1;dashPattern=1 4;" parent="1" vertex="1">
                    <mxGeometry x="794" y="970" width="190" height="120" as="geometry"/>
                </mxCell>
                <mxCell id="22" value="" style="shape=flexArrow;endArrow=classic;html=1;entryX=0;entryY=0.5;entryDx=0;entryDy=0;exitX=1;exitY=0.5;exitDx=0;exitDy=0;" parent="1" source="12" target="21" edge="1">
                    <mxGeometry width="50" height="50" relative="1" as="geometry">
                        <mxPoint x="594" y="1000" as="sourcePoint"/>
                        <mxPoint x="644" y="950" as="targetPoint"/>
                    </mxGeometry>
                </mxCell>
                <mxCell id="25" value="&lt;h1&gt;Resource&lt;/h1&gt;&lt;p&gt;Process all kinds of resources, such as image, models, materials, audios, videos, etc.&lt;/p&gt;" style="text;html=1;strokeColor=default;fillColor=none;spacing=5;spacingTop=-20;whiteSpace=wrap;overflow=hidden;rounded=0;dashed=1;dashPattern=1 4;" parent="1" vertex="1">
                    <mxGeometry x="794" y="760" width="190" height="120" as="geometry"/>
                </mxCell>
                <mxCell id="26" value="" style="shape=flexArrow;endArrow=classic;html=1;entryX=0;entryY=0.5;entryDx=0;entryDy=0;exitX=1;exitY=0.5;exitDx=0;exitDy=0;" parent="1" source="9" target="25" edge="1">
                    <mxGeometry width="50" height="50" relative="1" as="geometry">
                        <mxPoint x="744" y="1040" as="sourcePoint"/>
                        <mxPoint x="804" y="1040" as="targetPoint"/>
                    </mxGeometry>
                </mxCell>
                <mxCell id="48" value="" style="shape=flexArrow;endArrow=classic;html=1;exitX=1;exitY=0.5;exitDx=0;exitDy=0;entryX=0;entryY=0.5;entryDx=0;entryDy=0;" parent="1" source="15" target="49" edge="1">
                    <mxGeometry width="50" height="50" relative="1" as="geometry">
                        <mxPoint x="754" y="1230" as="sourcePoint"/>
                        <mxPoint x="804" y="1240" as="targetPoint"/>
                    </mxGeometry>
                </mxCell>
                <mxCell id="49" value="&lt;h1&gt;&lt;span style=&quot;background-color: initial;&quot;&gt;Platform&lt;/span&gt;&lt;/h1&gt;&lt;h1&gt;&lt;span style=&quot;background-color: initial; font-size: 12px; font-weight: normal;&quot;&gt;Platform warpper&lt;/span&gt;&lt;br&gt;&lt;/h1&gt;" style="text;html=1;strokeColor=default;fillColor=none;spacing=5;spacingTop=-20;whiteSpace=wrap;overflow=hidden;rounded=0;dashed=1;dashPattern=1 4;" parent="1" vertex="1">
                    <mxGeometry x="794" y="1180" width="190" height="120" as="geometry"/>
                </mxCell>
                <mxCell id="56" value="" style="endArrow=classic;html=1;exitX=0.5;exitY=1;exitDx=0;exitDy=0;dashed=1;dashPattern=1 4;entryX=1;entryY=0.5;entryDx=0;entryDy=0;" parent="1" source="55" target="58" edge="1">
                    <mxGeometry width="50" height="50" relative="1" as="geometry">
                        <mxPoint x="344" y="760" as="sourcePoint"/>
                        <mxPoint x="84.00000000000023" y="885" as="targetPoint"/>
                        <Array as="points">
                            <mxPoint x="364" y="900"/>
                        </Array>
                    </mxGeometry>
                </mxCell>
                <mxCell id="58" value="&lt;h1&gt;Code&lt;/h1&gt;&lt;p&gt;user's code, not engine source code&lt;/p&gt;" style="text;html=1;strokeColor=default;fillColor=none;spacing=5;spacingTop=-20;whiteSpace=wrap;overflow=hidden;rounded=1;dashed=1;dashPattern=12 12;" parent="1" vertex="1">
                    <mxGeometry x="-196" y="855" width="190" height="90" as="geometry"/>
                </mxCell>
                <mxCell id="63" value="&lt;h1&gt;LifeCycle&lt;/h1&gt;&lt;p&gt;Tick the world, logic =&amp;gt; render&lt;/p&gt;" style="text;html=1;strokeColor=default;fillColor=none;spacing=5;spacingTop=-20;whiteSpace=wrap;overflow=hidden;rounded=1;dashed=1;dashPattern=12 12;" parent="1" vertex="1">
                    <mxGeometry x="-196" y="640" width="190" height="90" as="geometry"/>
                </mxCell>
                <mxCell id="64" value="" style="endArrow=classic;html=1;exitX=0.5;exitY=1;exitDx=0;exitDy=0;dashed=1;dashPattern=1 4;entryX=1;entryY=0.5;entryDx=0;entryDy=0;startArrow=classic;startFill=1;" parent="1" source="62" target="63" edge="1">
                    <mxGeometry width="50" height="50" relative="1" as="geometry">
                        <mxPoint x="384" y="690" as="sourcePoint"/>
                        <mxPoint x="14" y="730" as="targetPoint"/>
                        <Array as="points">
                            <mxPoint x="310" y="685"/>
                        </Array>
                    </mxGeometry>
                </mxCell>
                <mxCell id="79" value="&lt;h1&gt;ECS&lt;/h1&gt;&lt;p&gt;Entity, Component, System&lt;/p&gt;" style="text;html=1;strokeColor=default;fillColor=none;spacing=5;spacingTop=-20;whiteSpace=wrap;overflow=hidden;rounded=1;dashed=1;dashPattern=12 12;" parent="1" vertex="1">
                    <mxGeometry x="-196" y="510" width="190" height="90" as="geometry"/>
                </mxCell>
                <mxCell id="92" value="&lt;h1&gt;Project Export&lt;/h1&gt;&lt;p&gt;Build game&lt;/p&gt;" style="text;html=1;strokeColor=default;fillColor=none;spacing=5;spacingTop=-20;whiteSpace=wrap;overflow=hidden;rounded=1;dashed=1;dashPattern=12 12;" parent="1" vertex="1">
                    <mxGeometry x="-196" y="380" width="190" height="90" as="geometry"/>
                </mxCell>
                <mxCell id="93" value="&lt;h1&gt;Function&lt;/h1&gt;&lt;p&gt;Process all kinds of resources, such as image, models, materials, audios, videos, etc.&lt;/p&gt;" style="text;html=1;strokeColor=default;fillColor=none;spacing=5;spacingTop=-20;whiteSpace=wrap;overflow=hidden;rounded=0;dashed=1;dashPattern=1 4;" parent="1" vertex="1">
                    <mxGeometry x="794" y="450" width="190" height="120" as="geometry"/>
                </mxCell>
                <mxCell id="94" value="" style="shape=flexArrow;endArrow=classic;html=1;entryX=0;entryY=0.5;entryDx=0;entryDy=0;" parent="1" target="93" edge="1">
                    <mxGeometry width="50" height="50" relative="1" as="geometry">
                        <mxPoint x="724" y="510" as="sourcePoint"/>
                        <mxPoint x="804" y="830" as="targetPoint"/>
                    </mxGeometry>
                </mxCell>
                <mxCell id="7" value="Function Layer" style="text;html=1;strokeColor=none;fillColor=none;align=right;verticalAlign=middle;whiteSpace=wrap;rounded=0;dashed=1;dashPattern=8 8;" parent="1" vertex="1">
                    <mxGeometry x="144" y="680" width="580" height="30" as="geometry"/>
                </mxCell>
                <mxCell id="20" value="Network" style="rounded=0;whiteSpace=wrap;html=1;fillColor=none;" parent="1" vertex="1">
                    <mxGeometry x="482.961038961039" y="341.1111111111111" width="90.3896103896104" height="50" as="geometry"/>
                </mxCell>
                <mxCell id="31" value="LogSystem" style="rounded=0;whiteSpace=wrap;html=1;fillColor=none;" parent="1" vertex="1">
                    <mxGeometry x="264.52038961038966" y="411" width="90.3896103896104" height="50" as="geometry"/>
                </mxCell>
                <mxCell id="50" value="Physical" style="rounded=0;whiteSpace=wrap;html=1;fillColor=none;" parent="1" vertex="1">
                    <mxGeometry x="264.51948051948057" y="341.1111111111111" width="90.3896103896104" height="50" as="geometry"/>
                </mxCell>
                <mxCell id="54" value="UI" style="rounded=0;whiteSpace=wrap;html=1;fillColor=none;" parent="1" vertex="1">
                    <mxGeometry x="372.6103896103896" y="341.1111111111111" width="90.3896103896104" height="50" as="geometry"/>
                </mxCell>
                <mxCell id="61" value="Input" style="rounded=0;whiteSpace=wrap;html=1;fillColor=none;" parent="1" vertex="1">
                    <mxGeometry x="482.961038961039" y="411" width="90.3896103896104" height="50" as="geometry"/>
                </mxCell>
                <mxCell id="62" value="LifeCycle" style="rounded=0;whiteSpace=wrap;html=1;fillColor=none;" parent="1" vertex="1">
                    <mxGeometry x="264.51948051948057" y="480" width="90.3896103896104" height="50" as="geometry"/>
                </mxCell>
                <mxCell id="66" value="CrashHandle" style="rounded=0;whiteSpace=wrap;html=1;fillColor=none;" parent="1" vertex="1">
                    <mxGeometry x="372.2294805194805" y="411" width="90.3896103896104" height="50" as="geometry"/>
                </mxCell>
                <mxCell id="70" value="Transformation" style="rounded=0;whiteSpace=wrap;html=1;fillColor=none;" parent="1" vertex="1">
                    <mxGeometry x="593.9994805194806" y="341.11" width="90.3896103896104" height="50" as="geometry"/>
                </mxCell>
                <mxCell id="78" value="ECS" style="rounded=0;whiteSpace=wrap;html=1;fillColor=none;" parent="1" vertex="1">
                    <mxGeometry x="372.23376623376623" y="480" width="90.3896103896104" height="50" as="geometry"/>
                </mxCell>
                <mxCell id="80" value="" style="endArrow=classic;html=1;dashed=1;dashPattern=1 4;entryX=1;entryY=0.5;entryDx=0;entryDy=0;exitX=0.5;exitY=1;exitDx=0;exitDy=0;startArrow=classic;startFill=1;" parent="1" source="78" target="79" edge="1">
                    <mxGeometry width="50" height="50" relative="1" as="geometry">
                        <mxPoint x="454" y="720" as="sourcePoint"/>
                        <mxPoint x="4" y="695" as="targetPoint"/>
                        <Array as="points">
                            <mxPoint x="417" y="555"/>
                            <mxPoint x="74" y="555"/>
                        </Array>
                    </mxGeometry>
                </mxCell>
                <mxCell id="87" value="" style="group" parent="1" vertex="1" connectable="0">
                    <mxGeometry x="154" y="340" width="100.00064935064937" height="303.89" as="geometry"/>
                </mxCell>
                <mxCell id="86" value="" style="group" parent="87" vertex="1" connectable="0">
                    <mxGeometry width="100.00064935064937" height="303.89" as="geometry"/>
                </mxCell>
                <mxCell id="83" value="" style="rounded=0;whiteSpace=wrap;html=1;strokeColor=default;fillColor=none;" parent="86" vertex="1">
                    <mxGeometry width="100" height="303.89" as="geometry"/>
                </mxCell>
                <mxCell id="85" value="Render" style="text;html=1;strokeColor=none;fillColor=none;align=right;verticalAlign=middle;whiteSpace=wrap;rounded=0;dashed=1;dashPattern=8 8;" parent="86" vertex="1">
                    <mxGeometry x="32.208441558441585" y="273.89" width="67.79220779220779" height="30" as="geometry"/>
                </mxCell>
                <mxCell id="68" value="Camera" style="rounded=0;whiteSpace=wrap;html=1;dashed=1;dashPattern=1 1;strokeColor=default;fillColor=none;" parent="87" vertex="1">
                    <mxGeometry x="12.064935064935085" y="15" width="75.32467532467533" height="40" as="geometry"/>
                </mxCell>
                <mxCell id="69" value="PostProcess" style="rounded=0;whiteSpace=wrap;html=1;dashed=1;dashPattern=1 1;strokeColor=default;fillColor=none;" parent="87" vertex="1">
                    <mxGeometry x="12.064935064935085" y="63.89" width="75.32467532467533" height="40" as="geometry"/>
                </mxCell>
                <mxCell id="71" value="Mesh" style="rounded=0;whiteSpace=wrap;html=1;dashed=1;dashPattern=1 1;strokeColor=default;fillColor=none;" parent="87" vertex="1">
                    <mxGeometry x="12.064935064935085" y="113.89" width="75.32467532467533" height="40" as="geometry"/>
                </mxCell>
                <mxCell id="72" value="Material" style="rounded=0;whiteSpace=wrap;html=1;dashed=1;dashPattern=1 1;strokeColor=default;fillColor=none;" parent="87" vertex="1">
                    <mxGeometry x="12.064935064935085" y="163.89" width="75.32467532467533" height="40" as="geometry"/>
                </mxCell>
                <mxCell id="84" value="Light" style="rounded=0;whiteSpace=wrap;html=1;dashed=1;dashPattern=1 1;strokeColor=default;fillColor=none;" parent="87" vertex="1">
                    <mxGeometry x="12.064935064935085" y="213.89" width="75.32467532467533" height="40" as="geometry"/>
                </mxCell>
                <mxCell id="90" value="ProjectBuild" style="rounded=0;whiteSpace=wrap;html=1;fillColor=none;" parent="1" vertex="1">
                    <mxGeometry x="482.96103896103887" y="480" width="90.3896103896104" height="50" as="geometry"/>
                </mxCell>
                <mxCell id="91" value="" style="endArrow=classic;html=1;dashed=1;dashPattern=1 4;entryX=1;entryY=0.5;entryDx=0;entryDy=0;exitX=0.5;exitY=1;exitDx=0;exitDy=0;startArrow=classic;startFill=1;" parent="1" source="90" target="92" edge="1">
                    <mxGeometry width="50" height="50" relative="1" as="geometry">
                        <mxPoint x="427.42857142857156" y="540" as="sourcePoint"/>
                        <mxPoint x="4" y="565" as="targetPoint"/>
                        <Array as="points">
                            <mxPoint x="528" y="660"/>
                            <mxPoint x="84" y="660"/>
                            <mxPoint x="84" y="425"/>
                        </Array>
                    </mxGeometry>
                </mxCell>
                <mxCell id="95" value="" style="shape=flexArrow;endArrow=classic;html=1;entryX=0;entryY=0.5;entryDx=0;entryDy=0;" parent="1" target="96" edge="1">
                    <mxGeometry width="50" height="50" relative="1" as="geometry">
                        <mxPoint x="724" y="190" as="sourcePoint"/>
                        <mxPoint x="824" y="200" as="targetPoint"/>
                    </mxGeometry>
                </mxCell>
                <mxCell id="96" value="&lt;h1&gt;Tool&lt;/h1&gt;&lt;p&gt;anything we can see in the engine.&lt;/p&gt;" style="text;html=1;strokeColor=default;fillColor=none;spacing=5;spacingTop=-20;whiteSpace=wrap;overflow=hidden;rounded=0;dashed=1;dashPattern=1 4;" parent="1" vertex="1">
                    <mxGeometry x="794" y="130" width="190" height="120" as="geometry"/>
                </mxCell>
                <mxCell id="100" value="&lt;font style=&quot;font-size: 30px;&quot;&gt;Engine Layer&lt;/font&gt;" style="text;html=1;strokeColor=none;fillColor=none;align=center;verticalAlign=middle;whiteSpace=wrap;rounded=0;" parent="1" vertex="1">
                    <mxGeometry x="194" y="-90" width="480" height="120" as="geometry"/>
                </mxCell>
                <mxCell id="102" value="Assets" style="rounded=0;whiteSpace=wrap;html=1;fillColor=none;" vertex="1" parent="1">
                    <mxGeometry x="594.001038961039" y="411" width="90.3896103896104" height="50" as="geometry"/>
                </mxCell>
            </root>
        </mxGraphModel>
    </diagram>
</mxfile>